<svg xmlns="http://www.w3.org/2000/svg" width="512" height="512" viewBox="0 0 64 64" fill="none">
<rect width="64" height="64" fill="#002345"></rect>
<line x1="51.053" y1="21" x2="51.053" y2="43" stroke="#ffffff" stroke-opacity="0.45" stroke-width="1.125"></line>
<line x1="51.053" y1="43" x2="32" y2="54" stroke="#ffffff" stroke-opacity="0.45" stroke-width="1.125"></line>
<line x1="32" y1="54" x2="12.947" y2="43" stroke="#ffffff" stroke-opacity="0.45" stroke-width="1.125"></line>
<line x1="12.947" y1="43" x2="12.947" y2="21" stroke="#ffffff" stroke-opacity="0.45" stroke-width="1.125"></line>
<line x1="12.947" y1="21" x2="32" y2="10" stroke="#ffffff" stroke-opacity="0.45" stroke-width="1.125"></line>
<line x1="32" y1="10" x2="51.053" y2="21" stroke="#ffffff" stroke-opacity="0.45" stroke-width="1.125"></line>
<line x1="51.053" y1="21" x2="12.947" y2="43" stroke="#ffffff" stroke-opacity="0.22" stroke-width="0.8999999999999999"></line>
<line x1="51.053" y1="43" x2="12.947" y2="21" stroke="#ffffff" stroke-opacity="0.22" stroke-width="0.8999999999999999"></line>
<line x1="32" y1="54" x2="32" y2="10" stroke="#ffffff" stroke-opacity="0.22" stroke-width="0.8999999999999999"></line>
<line x1="32" y1="32" x2="51.053" y2="21" stroke="#ffffff" stroke-opacity="0.85" stroke-width="1.5"></line><line x1="32" y1="32" x2="51.053" y2="43" stroke="#ffffff" stroke-opacity="0.85" stroke-width="1.5"></line><line x1="32" y1="32" x2="32" y2="54" stroke="#ffffff" stroke-opacity="0.85" stroke-width="1.5"></line><line x1="32" y1="32" x2="12.947" y2="43" stroke="#ffffff" stroke-opacity="0.85" stroke-width="1.5"></line><line x1="32" y1="32" x2="12.947" y2="21" stroke="#ffffff" stroke-opacity="0.85" stroke-width="1.5"></line><line x1="32" y1="32" x2="32" y2="10" stroke="#ffffff" stroke-opacity="0.85" stroke-width="1.5"></line>
<rect x="22" y="22" width="20" height="20" fill="#002345" stroke="#ffffff" stroke-width="1.5"></rect>
<path d="M27 28 L33 32 L27 36" stroke="#ffffff" stroke-width="2.0999999999999996" stroke-linecap="square" stroke-linejoin="miter" fill="none"></path>
<rect x="34" y="35" width="5" height="1.6" fill="#009fe3"></rect>
<circle cx="51.053" cy="21" r="3.2" fill="#009fe3"></circle><circle cx="51.053" cy="43" r="2.6" fill="#ffffff"></circle><circle cx="32" cy="54" r="2.6" fill="#ffffff"></circle><circle cx="12.947" cy="43" r="2.6" fill="#ffffff"></circle><circle cx="12.947" cy="21" r="2.6" fill="#ffffff"></circle><circle cx="32" cy="10" r="2.6" fill="#ffffff"></circle>
</svg>